<svg height="818" viewBox="-.826 -7.716 477.079 213.15158853" width="2500" xmlns="http://www.w3.org/2000/svg"><g fill="#e42120"><path d="m103.513 14.728c.656-2.238 1.13-5.803-1.959-6.929 0 0-15.55-9.247-55.707 44.151 0 0-25.232 34.691-25.232 64.125 0 0-.838 29.222 33.007 27.542 0 0 14.925-.635 42.888-8.831 0 0 23.339-7.566 52.56-8.408 0 0 30.485-1.897 57.188 29.434 0 0-40.157-26.074-56.133-1.055 0 0-10.728-21.654-45.623-16.185 0 0-17.661 3.151-32.377 7.566 0 0-21.655 6.729-37.843 5.888 0 0-35.108 0-34.266-40.579 0 0-.421-45.831 49.612-88.718 0 0 27.75-25.436 48.779-22.492 0 0 14.292 1.472 9.876 17.235 0 0-2.606 8.981-8.511 12.757 0 0-4.606 2.953-7.239-1.179 0 0-2.518-4.805 2.598-10.466 0 0 4.078-4.583 8.414-3.852z"/><path d="m106.939 39.056c-9.083-5.368-27.736 5.882-42.179 26.029-14.442 20.147-19.017 41.195-10.408 47.303 9.3 6.601 26.176-5.479 40.618-25.631 14.443-20.143 21.296-42.187 11.969-47.701zm-10.922 37.417c-8.955 14.806-19.815 25.551-24.656 22.284-6.224-4.198.222-17.124 9.185-31.93 8.954-14.801 17.066-24.589 23.254-21.672 5.351 2.518 1.18 16.517-7.783 31.318zm144.103-23.773 7.85-13.028h-14.247l-7.85 13.028zm100.745 54.652c6.653-14.406 8.188-27.049 1.507-30.985-9.047-5.337-27.438 6.18-41.58 26.633-14.132 20.453-18.472 41.73-9.894 47.812 9.282 6.578 25.896-5.759 40.033-26.216a122.505 122.505 0 0 0 7.629-12.576c4.845.213 8.533-1.175 8.533-1.175l2.065-5.63c-2.916 1.659-5.935 2.071-8.293 2.137zm-1.552-24.806c4.424 2.07 2.394 12.208-3.431 24.194-4.313-1.22-6.77-3.786-6.77-3.786-6.023-5.731-2.654-12.461-1.063-14.938 4.145-4.805 7.9-7.048 11.264-5.47zm-7.434 31.668c-8.741 15.01-19.421 25.95-24.239 22.696-6.21-4.185.541-17.306 9.287-32.32a227.018 227.018 0 0 1 3.378-5.625c3.551 7.465 8.546 10.865 13.263 12.248-.541.994-1.104 1.991-1.689 3.001zm86.312-87.344s26.974 5.714 58.062-26.517c0 0-25.147 48.003-68.807 39.55z"/><path d="m416.285 137.504c-3.019-.102.612-6.857.612-6.857l30.476-53.487h-15.085l-2.208 3.888c-3.887-6.4-8.914-5.718-8.914-5.718-18.973.23-46.177 46.633-46.177 46.633-11.658 18.29-16.229 16.229-16.229 16.229-8.006-2.744 7.088-34.519 7.088-34.519 16.003-10.284 29.935-23.042 47.09-43.659 4.841-5.82 9.221-11.468 13.063-16.823-2.93.239-4.991.137-4.991.137-28.499 37.64-50.246 51.089-50.246 51.089 25.254-53.833 55.198-79.091 55.198-79.091 10.869-9.726 12.132-7.465 12.132-7.465 2.261 2.456-4.813 15.351-4.813 15.351 1.755-.239 4.401-.979 5.838-1.405 4.464-9.371 5.43-16.277 1.773-19.247-6.375-5.169-30.016 10.594-53.102 39.621-.798 1.006-.878 1.051-1.653 2.048l-.784.913s-12.43 13.494-27.258 41.208c-5.527 9.97-12.908 25.524-18.534 45.667 0 0-4.801 18.29 7.767 20.116 0 0 9.531 2.062 22.403-15.771-2.282 16.84 8.152 15.776 8.152 15.776 8.688 0 19.655-12.271 19.655-12.271-2.057 13.104 6.095 12.346 6.095 12.346 17.075.15 40.8-39.239 40.8-39.239h-5.137c-17.656 26.503-23.011 24.53-23.011 24.53zm-26.438-.15s-3.812-.532.537-12.04c0 0 5.709-14.858 21.1-32.612 0 0 13.188-15.542 15.396-7.159 0 0 .08.275-.075.607l-19.505 33.525c-.001 0-11.056 18.898-17.453 17.679zm-8.329-128.455s-24.137-15.994-45.632-3.573c-10.483-13.042-38.463 3.865-38.463 3.865-24.669 14.925-42.36 35.356-53.886 52.068-9.916 13.037-16.265 26.88-19.611 35.382a72.433 72.433 0 0 0 -2.181 5.932c-.497 1.454-.731 2.27-.731 2.27-.018.098-.022.178-.036.266-2.788 9.895-2.908 17.768-2.908 17.768-.235 29.602 21.141 29.256 21.141 29.256 10.395.705 20.457-6.17 20.457-6.17 27.771-18.857 34.891-47.436 34.891-47.436 6.153-23.658-7.655-23.251-7.655-23.251-14.983-.271-25.015 14.912-25.015 14.912-10.643 15.524-11.791 32.741-11.791 32.741 10.775-12 19.722-15.116 19.722-15.116 6.711-26.366 17.358-24.744 17.358-24.744 3.994-.062 3.994 5.368 3.994 5.368.612 11.513-8.382 26.057-8.382 26.057-23.312 35.356-37.64 24.079-37.64 24.079-16.916-11.277 5.187-53.341 5.187-53.341 30.777-57.906 63.695-74.055 63.695-74.055a46.155 46.155 0 0 1 4.672-2.261c6.503-2.686 10.188-2.092 12.044-1.268-8.01 4.264-17.354 12.562-23.392 20.56-10.59 14.017-15.563 27.492-7.554 32.768 4.583 3.019 12.15.239 19.997-7.532 7.318-6.946 11.653-15.369 13.13-18.547 2.943-5.98 6.06-14.832 5.487-24.811l.106-.089c1.641-.558 7.004-1.862 14.868 1.432 0 0 9.947 3.994 16.632 8.724 0 0 18.099 11.818 21.277 13.285 0 0 9.615-10.435 11.574-12.226.002.001-18.42-10.762-21.355-12.313zm-47.852 3.347c.408 21.193-16.225 36.93-16.225 36.93-10.505 10.847-14.871 7.544-14.871 7.544s-4.141-2.208.119-11.463c0 0 10.267-22.984 30.896-33.419l.085-.04zm-136.864 84.684c-3.196 2.966-5.483 2.168-5.483 2.168-2.167-.812-.341-3.998-.341-3.998l31.886-55.428-15.032-.036-1.516 2.704c-14.633-20.799-50.428 34.363-50.428 34.363-3.196 4.57-10.741 13.369-10.741 13.369-17.833 19.771-24.119 11.658-24.119 11.658-7.651-6.4 8.573-32.457 8.573-32.457 8.804-14.176 18.334-21.543 18.334-21.543 5.049-4.158 8.857-2.127 8.857-2.127 2.474 1.684.745 5.049.745 5.049-9.996.691-10.741 10.391-10.741 10.391-.497 3.364 2.274 4.357 2.274 4.357 2.079.838 4.114-.248 4.114-.248 7.075-4.109 9.198-13.374 9.198-13.374 2.965-14.416-10.071-14.309-10.071-14.309-11.663-.847-27.032 16.956-27.032 16.956-18.232 19.823-31.38 10.071-31.38 10.071-8.875-6.206-1.144-14.717-1.144-14.717l-9.77 4.54.74 6.153s8.697 16.959 27.882 10.071c0 0-11.663 16.748-10.076 30.631 0 0 1.49 13.458 12.824 13.458 0 0 2.625.274 6.769-.869.004-.005.009-.005.013-.005 0 0 2.38-.297 6.889-2.846a41.168 41.168 0 0 0 5.417-3.542c3.834-2.801 8.529-6.844 14.025-12.629-.851 2.718-4.287 14.837.878 18.082 0 0 8.342 7.766 24.567-9.947 0 0-2.168 10.745 6.175 11.658 0 0 13.945 2.854 40.578-37.945h-5.142c-6.516 9.827-17.722 20.341-17.722 20.341zm-31.659 2.629c-1.689-.896-1.25-3.431-1.25-3.431 1.365-9.823 14.735-29.372 14.735-29.372 21.269-31.198 24.806-19.429 24.806-19.429-6.286 11.547-22.288 38.175-22.288 38.175-10.72 17.48-16.003 14.057-16.003 14.057z"/></g></svg>